<?xml version="1.0" encoding="UTF-8"?>
<svg width="180px" height="180px" viewBox="0 0 180 180" version="1.1" xmlns="http://www.w3.org/2000/svg" xmlns:xlink="http://www.w3.org/1999/xlink">
    <g stroke="none" stroke-width="1" fill="none" fill-rule="evenodd">
        <rect fill="#000000" width="180" height="180" rx="10"></rect>
        <path d="M66.7474282,46 L108.842201,46 L108.842201,49.1969317 L70.405352,49.1969317 L70.405352,84.8649968 L106.077388,84.8649968 L106.077388,88.0619286 L70.405352,88.0619286 L70.405352,126.255568 L109.288568,126.255568 L109.288568,129.4525 L66.7474282,129.4525 L66.7474282,46 Z M118.327319,46 L122.505372,46 L143.626236,75.0048536 L164.895354,46 L169,46 L145.215807,78.6029968 L170,129.4525 L165.820783,129.4525 L143.476919,96.995836 L121.057364,129.4525 L116.904911,129.4525 L142.038485,78.6029968 L118.327319,46 Z M10,46 L14.1780565,46 L54.6507195,129.4525 L50.3479763,129.4525 L38.8314583,106.092348 L14.1780565,106.092348 L2.66153854,129.4525 L-1.70530257e-13,129.4525 L10,46 Z M34.153225,102.895417 L36.8682295,96.7248964 L26.2396822,70.1343094 L15.6111348,96.7248964 L18.3261394,102.895417 L34.153225,102.895417 Z" fill="#FFFFFF" fill-rule="nonzero"></path>
    </g>
</svg> 